<mxfile host="app.diagrams.net" modified="2023-11-23T08:39:38.833Z" agent="Mozilla/5.0 (Windows NT 10.0; Win64; x64) AppleWebKit/537.36 (KHTML, like Gecko) Chrome/119.0.0.0 Safari/537.36" etag="fNzxXd5pr3ww_l9x3U-N" version="22.1.3" type="google">
  <diagram id="C5RBs43oDa-KdzZeNtuy" name="Page-1">
    <mxGraphModel grid="1" page="1" gridSize="10" guides="1" tooltips="1" connect="1" arrows="1" fold="1" pageScale="1" pageWidth="827" pageHeight="1169" math="0" shadow="0">
      <root>
        <mxCell id="WIyWlLk6GJQsqaUBKTNV-0" />
        <mxCell id="WIyWlLk6GJQsqaUBKTNV-1" parent="WIyWlLk6GJQsqaUBKTNV-0" />
        <mxCell id="ZOCQQ2afY48PV9miqAx--4" value="&lt;font style=&quot;font-size: 14px;&quot;&gt;&lt;b&gt;SERVER&lt;/b&gt;&lt;/font&gt;" style="rounded=0;whiteSpace=wrap;html=1;" vertex="1" parent="WIyWlLk6GJQsqaUBKTNV-1">
          <mxGeometry x="354" width="120" height="40" as="geometry" />
        </mxCell>
        <mxCell id="ZOCQQ2afY48PV9miqAx--5" value="GestionePlayers" style="swimlane;fontStyle=1;align=center;verticalAlign=top;childLayout=stackLayout;horizontal=1;startSize=26;horizontalStack=0;resizeParent=1;resizeParentMax=0;resizeLast=0;collapsible=1;marginBottom=0;whiteSpace=wrap;html=1;" vertex="1" parent="WIyWlLk6GJQsqaUBKTNV-1">
          <mxGeometry x="600" y="70" width="220" height="110" as="geometry" />
        </mxCell>
        <mxCell id="ZOCQQ2afY48PV9miqAx--6" value="+ List&amp;lt;Socket&amp;gt; connPlayers" style="text;strokeColor=none;fillColor=none;align=left;verticalAlign=top;spacingLeft=4;spacingRight=4;overflow=hidden;rotatable=0;points=[[0,0.5],[1,0.5]];portConstraint=eastwest;whiteSpace=wrap;html=1;" vertex="1" parent="ZOCQQ2afY48PV9miqAx--5">
          <mxGeometry y="26" width="220" height="24" as="geometry" />
        </mxCell>
        <mxCell id="ZOCQQ2afY48PV9miqAx--7" value="" style="line;strokeWidth=1;fillColor=none;align=left;verticalAlign=middle;spacingTop=-1;spacingLeft=3;spacingRight=3;rotatable=0;labelPosition=right;points=[];portConstraint=eastwest;strokeColor=inherit;" vertex="1" parent="ZOCQQ2afY48PV9miqAx--5">
          <mxGeometry y="50" width="220" height="8" as="geometry" />
        </mxCell>
        <mxCell id="ZOCQQ2afY48PV9miqAx--8" value="+ gestionePlayers() :&amp;nbsp;&lt;br&gt;+ aggiungiPlayers(Socket s) : boolean&lt;br&gt;+ chiudiConnessioni() : void" style="text;strokeColor=none;fillColor=none;align=left;verticalAlign=top;spacingLeft=4;spacingRight=4;overflow=hidden;rotatable=0;points=[[0,0.5],[1,0.5]];portConstraint=eastwest;whiteSpace=wrap;html=1;" vertex="1" parent="ZOCQQ2afY48PV9miqAx--5">
          <mxGeometry y="58" width="220" height="52" as="geometry" />
        </mxCell>
        <mxCell id="06xm1KW4ta1WUU6lVawy-13" value="" style="edgeStyle=orthogonalEdgeStyle;rounded=0;orthogonalLoop=1;jettySize=auto;html=1;entryX=0.936;entryY=1.062;entryDx=0;entryDy=0;entryPerimeter=0;exitX=0.08;exitY=0.002;exitDx=0;exitDy=0;exitPerimeter=0;" edge="1" parent="WIyWlLk6GJQsqaUBKTNV-1" source="ZOCQQ2afY48PV9miqAx--9" target="ZOCQQ2afY48PV9miqAx--16">
          <mxGeometry relative="1" as="geometry">
            <Array as="points">
              <mxPoint x="552" y="330" />
              <mxPoint x="532" y="330" />
            </Array>
          </mxGeometry>
        </mxCell>
        <mxCell id="ZOCQQ2afY48PV9miqAx--9" value="Player&lt;br&gt;" style="swimlane;fontStyle=1;align=center;verticalAlign=top;childLayout=stackLayout;horizontal=1;startSize=26;horizontalStack=0;resizeParent=1;resizeParentMax=0;resizeLast=0;collapsible=1;marginBottom=0;whiteSpace=wrap;html=1;" vertex="1" parent="WIyWlLk6GJQsqaUBKTNV-1">
          <mxGeometry x="530" y="440" width="270" height="170" as="geometry" />
        </mxCell>
        <mxCell id="ZOCQQ2afY48PV9miqAx--10" value="+ String nome&lt;br&gt;+ List&amp;lt;Carta&amp;gt; carteMano&lt;br&gt;+ Socket socket&lt;br&gt;+ GestioneCombinazioni gestioneCombinazioni&lt;br&gt;+ boolean aperto&lt;br&gt;+ Messaggio messaggio" style="text;strokeColor=none;fillColor=none;align=left;verticalAlign=top;spacingLeft=4;spacingRight=4;overflow=hidden;rotatable=0;points=[[0,0.5],[1,0.5]];portConstraint=eastwest;whiteSpace=wrap;html=1;" vertex="1" parent="ZOCQQ2afY48PV9miqAx--9">
          <mxGeometry y="26" width="270" height="94" as="geometry" />
        </mxCell>
        <mxCell id="ZOCQQ2afY48PV9miqAx--11" value="" style="line;strokeWidth=1;fillColor=none;align=left;verticalAlign=middle;spacingTop=-1;spacingLeft=3;spacingRight=3;rotatable=0;labelPosition=right;points=[];portConstraint=eastwest;strokeColor=inherit;" vertex="1" parent="ZOCQQ2afY48PV9miqAx--9">
          <mxGeometry y="120" width="270" height="8" as="geometry" />
        </mxCell>
        <mxCell id="ZOCQQ2afY48PV9miqAx--12" value="+ Player( String n, Socket s) :&amp;nbsp;&lt;br&gt;+ run() : void" style="text;strokeColor=none;fillColor=none;align=left;verticalAlign=top;spacingLeft=4;spacingRight=4;overflow=hidden;rotatable=0;points=[[0,0.5],[1,0.5]];portConstraint=eastwest;whiteSpace=wrap;html=1;" vertex="1" parent="ZOCQQ2afY48PV9miqAx--9">
          <mxGeometry y="128" width="270" height="42" as="geometry" />
        </mxCell>
        <mxCell id="06xm1KW4ta1WUU6lVawy-14" value="" style="edgeStyle=orthogonalEdgeStyle;rounded=0;orthogonalLoop=1;jettySize=auto;html=1;entryX=0.278;entryY=1.031;entryDx=0;entryDy=0;entryPerimeter=0;" edge="1" parent="WIyWlLk6GJQsqaUBKTNV-1" source="06xm1KW4ta1WUU6lVawy-0" target="ZOCQQ2afY48PV9miqAx--16">
          <mxGeometry relative="1" as="geometry">
            <Array as="points">
              <mxPoint x="360" y="310" />
              <mxPoint x="354" y="310" />
            </Array>
          </mxGeometry>
        </mxCell>
        <mxCell id="06xm1KW4ta1WUU6lVawy-0" value="Messaggio" style="swimlane;fontStyle=1;align=center;verticalAlign=top;childLayout=stackLayout;horizontal=1;startSize=26;horizontalStack=0;resizeParent=1;resizeParentMax=0;resizeLast=0;collapsible=1;marginBottom=0;whiteSpace=wrap;html=1;" vertex="1" parent="WIyWlLk6GJQsqaUBKTNV-1">
          <mxGeometry x="335" y="355" width="190" height="140" as="geometry" />
        </mxCell>
        <mxCell id="06xm1KW4ta1WUU6lVawy-1" value="+ String mess&lt;br&gt;+ String input&lt;br&gt;+ String output" style="text;strokeColor=none;fillColor=none;align=left;verticalAlign=top;spacingLeft=4;spacingRight=4;overflow=hidden;rotatable=0;points=[[0,0.5],[1,0.5]];portConstraint=eastwest;whiteSpace=wrap;html=1;" vertex="1" parent="06xm1KW4ta1WUU6lVawy-0">
          <mxGeometry y="26" width="190" height="54" as="geometry" />
        </mxCell>
        <mxCell id="06xm1KW4ta1WUU6lVawy-2" value="" style="line;strokeWidth=1;fillColor=none;align=left;verticalAlign=middle;spacingTop=-1;spacingLeft=3;spacingRight=3;rotatable=0;labelPosition=right;points=[];portConstraint=eastwest;strokeColor=inherit;" vertex="1" parent="06xm1KW4ta1WUU6lVawy-0">
          <mxGeometry y="80" width="190" height="8" as="geometry" />
        </mxCell>
        <mxCell id="06xm1KW4ta1WUU6lVawy-3" value="+ Messaggio(String m)&lt;br&gt;+ deserializeCarte() : List&amp;lt;Carta&amp;gt;&lt;br&gt;+ setOutput(String s) : void" style="text;strokeColor=none;fillColor=none;align=left;verticalAlign=top;spacingLeft=4;spacingRight=4;overflow=hidden;rotatable=0;points=[[0,0.5],[1,0.5]];portConstraint=eastwest;whiteSpace=wrap;html=1;" vertex="1" parent="06xm1KW4ta1WUU6lVawy-0">
          <mxGeometry y="88" width="190" height="52" as="geometry" />
        </mxCell>
        <mxCell id="06xm1KW4ta1WUU6lVawy-4" value="ServerTCP" style="swimlane;fontStyle=1;align=center;verticalAlign=top;childLayout=stackLayout;horizontal=1;startSize=26;horizontalStack=0;resizeParent=1;resizeParentMax=0;resizeLast=0;collapsible=1;marginBottom=0;whiteSpace=wrap;html=1;" vertex="1" parent="WIyWlLk6GJQsqaUBKTNV-1">
          <mxGeometry x="590" y="280" width="210" height="150" as="geometry" />
        </mxCell>
        <mxCell id="06xm1KW4ta1WUU6lVawy-5" value="+ ServerSocket serverSocket&lt;br&gt;+ GestionePlayers gestionePLayers" style="text;strokeColor=none;fillColor=none;align=left;verticalAlign=top;spacingLeft=4;spacingRight=4;overflow=hidden;rotatable=0;points=[[0,0.5],[1,0.5]];portConstraint=eastwest;whiteSpace=wrap;html=1;" vertex="1" parent="06xm1KW4ta1WUU6lVawy-4">
          <mxGeometry y="26" width="210" height="44" as="geometry" />
        </mxCell>
        <mxCell id="06xm1KW4ta1WUU6lVawy-6" value="" style="line;strokeWidth=1;fillColor=none;align=left;verticalAlign=middle;spacingTop=-1;spacingLeft=3;spacingRight=3;rotatable=0;labelPosition=right;points=[];portConstraint=eastwest;strokeColor=inherit;" vertex="1" parent="06xm1KW4ta1WUU6lVawy-4">
          <mxGeometry y="70" width="210" height="8" as="geometry" />
        </mxCell>
        <mxCell id="06xm1KW4ta1WUU6lVawy-7" value="+ accettaConnessione() : Socket&lt;br&gt;+ send(String s, Socket socket) : void&lt;br&gt;+ sendAll(String s) : void&lt;br&gt;+ close() : void" style="text;strokeColor=none;fillColor=none;align=left;verticalAlign=top;spacingLeft=4;spacingRight=4;overflow=hidden;rotatable=0;points=[[0,0.5],[1,0.5]];portConstraint=eastwest;whiteSpace=wrap;html=1;" vertex="1" parent="06xm1KW4ta1WUU6lVawy-4">
          <mxGeometry y="78" width="210" height="72" as="geometry" />
        </mxCell>
        <mxCell id="06xm1KW4ta1WUU6lVawy-8" value="" style="endArrow=classic;html=1;rounded=0;exitX=0.5;exitY=1;exitDx=0;exitDy=0;entryX=0.5;entryY=0;entryDx=0;entryDy=0;" edge="1" parent="WIyWlLk6GJQsqaUBKTNV-1" source="ZOCQQ2afY48PV9miqAx--4" target="ZOCQQ2afY48PV9miqAx--13">
          <mxGeometry width="50" height="50" relative="1" as="geometry">
            <mxPoint x="390" y="240" as="sourcePoint" />
            <mxPoint x="440" y="190" as="targetPoint" />
          </mxGeometry>
        </mxCell>
        <mxCell id="06xm1KW4ta1WUU6lVawy-9" value="" style="endArrow=classic;html=1;rounded=0;exitX=-0.005;exitY=-0.05;exitDx=0;exitDy=0;exitPerimeter=0;entryX=1;entryY=0.5;entryDx=0;entryDy=0;" edge="1" parent="WIyWlLk6GJQsqaUBKTNV-1" source="06xm1KW4ta1WUU6lVawy-7" target="ZOCQQ2afY48PV9miqAx--14">
          <mxGeometry width="50" height="50" relative="1" as="geometry">
            <mxPoint x="390" y="240" as="sourcePoint" />
            <mxPoint x="440" y="190" as="targetPoint" />
            <Array as="points">
              <mxPoint x="570" y="354" />
              <mxPoint x="570" y="163" />
            </Array>
          </mxGeometry>
        </mxCell>
        <mxCell id="06xm1KW4ta1WUU6lVawy-16" value="Campo" style="swimlane;fontStyle=1;align=center;verticalAlign=top;childLayout=stackLayout;horizontal=1;startSize=26;horizontalStack=0;resizeParent=1;resizeParentMax=0;resizeLast=0;collapsible=1;marginBottom=0;whiteSpace=wrap;html=1;" vertex="1" parent="WIyWlLk6GJQsqaUBKTNV-1">
          <mxGeometry x="9" y="30" width="270" height="110" as="geometry" />
        </mxCell>
        <mxCell id="06xm1KW4ta1WUU6lVawy-17" value="+ GestioneCombinazioni gestioneCombinazioni&lt;br&gt;+ GestioneMazzo gestioneMazzo" style="text;strokeColor=none;fillColor=none;align=left;verticalAlign=top;spacingLeft=4;spacingRight=4;overflow=hidden;rotatable=0;points=[[0,0.5],[1,0.5]];portConstraint=eastwest;whiteSpace=wrap;html=1;" vertex="1" parent="06xm1KW4ta1WUU6lVawy-16">
          <mxGeometry y="26" width="270" height="34" as="geometry" />
        </mxCell>
        <mxCell id="06xm1KW4ta1WUU6lVawy-18" value="" style="line;strokeWidth=1;fillColor=none;align=left;verticalAlign=middle;spacingTop=-1;spacingLeft=3;spacingRight=3;rotatable=0;labelPosition=right;points=[];portConstraint=eastwest;strokeColor=inherit;" vertex="1" parent="06xm1KW4ta1WUU6lVawy-16">
          <mxGeometry y="60" width="270" height="8" as="geometry" />
        </mxCell>
        <mxCell id="06xm1KW4ta1WUU6lVawy-19" value="+ Campo()&lt;br&gt;+ serializeAll() : String" style="text;strokeColor=none;fillColor=none;align=left;verticalAlign=top;spacingLeft=4;spacingRight=4;overflow=hidden;rotatable=0;points=[[0,0.5],[1,0.5]];portConstraint=eastwest;whiteSpace=wrap;html=1;" vertex="1" parent="06xm1KW4ta1WUU6lVawy-16">
          <mxGeometry y="68" width="270" height="42" as="geometry" />
        </mxCell>
        <mxCell id="06xm1KW4ta1WUU6lVawy-20" value="" style="edgeStyle=orthogonalEdgeStyle;rounded=0;orthogonalLoop=1;jettySize=auto;html=1;exitX=0.496;exitY=1.067;exitDx=0;exitDy=0;exitPerimeter=0;entryX=-0.009;entryY=0.898;entryDx=0;entryDy=0;entryPerimeter=0;" edge="1" parent="WIyWlLk6GJQsqaUBKTNV-1" source="06xm1KW4ta1WUU6lVawy-19" target="ZOCQQ2afY48PV9miqAx--14">
          <mxGeometry relative="1" as="geometry">
            <Array as="points">
              <mxPoint x="143" y="160" />
              <mxPoint x="259" y="160" />
              <mxPoint x="259" y="200" />
            </Array>
          </mxGeometry>
        </mxCell>
        <mxCell id="IiL9sP4HAawI8thrEt5j-0" value="" style="edgeStyle=orthogonalEdgeStyle;rounded=0;orthogonalLoop=1;jettySize=auto;html=1;entryX=0.5;entryY=0;entryDx=0;entryDy=0;" edge="1" parent="WIyWlLk6GJQsqaUBKTNV-1" source="ZOCQQ2afY48PV9miqAx--5" target="06xm1KW4ta1WUU6lVawy-4">
          <mxGeometry relative="1" as="geometry">
            <mxPoint x="600" y="125" as="sourcePoint" />
            <mxPoint x="270" y="114" as="targetPoint" />
          </mxGeometry>
        </mxCell>
        <mxCell id="ZOCQQ2afY48PV9miqAx--13" value="Gioco" style="swimlane;fontStyle=1;align=center;verticalAlign=top;childLayout=stackLayout;horizontal=1;startSize=26;horizontalStack=0;resizeParent=1;resizeParentMax=0;resizeLast=0;collapsible=1;marginBottom=0;whiteSpace=wrap;html=1;" vertex="1" parent="WIyWlLk6GJQsqaUBKTNV-1">
          <mxGeometry x="279" y="90" width="270" height="180" as="geometry" />
        </mxCell>
        <mxCell id="ZOCQQ2afY48PV9miqAx--14" value="+ boolean gioco&lt;br&gt;+ ServerTCP server&lt;br&gt;+ Player p1, p2, inGioco&lt;br&gt;+ Campo campo&lt;br&gt;+ List&amp;lt;Carta&amp;gt; perAprire&lt;br&gt;+ Messaggio messaggio" style="text;strokeColor=none;fillColor=none;align=left;verticalAlign=top;spacingLeft=4;spacingRight=4;overflow=hidden;rotatable=0;points=[[0,0.5],[1,0.5]];portConstraint=eastwest;whiteSpace=wrap;html=1;" vertex="1" parent="ZOCQQ2afY48PV9miqAx--13">
          <mxGeometry y="26" width="270" height="94" as="geometry" />
        </mxCell>
        <mxCell id="ZOCQQ2afY48PV9miqAx--15" value="" style="line;strokeWidth=1;fillColor=none;align=left;verticalAlign=middle;spacingTop=-1;spacingLeft=3;spacingRight=3;rotatable=0;labelPosition=right;points=[];portConstraint=eastwest;strokeColor=inherit;" vertex="1" parent="ZOCQQ2afY48PV9miqAx--13">
          <mxGeometry y="120" width="270" height="8" as="geometry" />
        </mxCell>
        <mxCell id="ZOCQQ2afY48PV9miqAx--16" value="+ Gioco ( Player p1, Player p2) :&amp;nbsp;&lt;br&gt;+ run() : void&lt;br&gt;- gestioneRichiesta() : void&amp;nbsp;" style="text;strokeColor=none;fillColor=none;align=left;verticalAlign=top;spacingLeft=4;spacingRight=4;overflow=hidden;rotatable=0;points=[[0,0.5],[1,0.5]];portConstraint=eastwest;whiteSpace=wrap;html=1;" vertex="1" parent="ZOCQQ2afY48PV9miqAx--13">
          <mxGeometry y="128" width="270" height="52" as="geometry" />
        </mxCell>
        <mxCell id="IiL9sP4HAawI8thrEt5j-10" value="" style="edgeStyle=orthogonalEdgeStyle;rounded=0;orthogonalLoop=1;jettySize=auto;html=1;entryX=0.259;entryY=1.067;entryDx=0;entryDy=0;entryPerimeter=0;" edge="1" parent="WIyWlLk6GJQsqaUBKTNV-1" source="IiL9sP4HAawI8thrEt5j-1" target="06xm1KW4ta1WUU6lVawy-19">
          <mxGeometry relative="1" as="geometry">
            <Array as="points">
              <mxPoint x="155" y="185" />
              <mxPoint x="79" y="185" />
            </Array>
          </mxGeometry>
        </mxCell>
        <mxCell id="IiL9sP4HAawI8thrEt5j-1" value="GestioneCombinazioni" style="swimlane;fontStyle=1;align=center;verticalAlign=top;childLayout=stackLayout;horizontal=1;startSize=26;horizontalStack=0;resizeParent=1;resizeParentMax=0;resizeLast=0;collapsible=1;marginBottom=0;whiteSpace=wrap;html=1;" vertex="1" parent="WIyWlLk6GJQsqaUBKTNV-1">
          <mxGeometry x="40" y="230" width="230" height="130" as="geometry" />
        </mxCell>
        <mxCell id="IiL9sP4HAawI8thrEt5j-2" value="+ List&amp;lt;Combinazione&amp;gt; combianazioni" style="text;strokeColor=none;fillColor=none;align=left;verticalAlign=top;spacingLeft=4;spacingRight=4;overflow=hidden;rotatable=0;points=[[0,0.5],[1,0.5]];portConstraint=eastwest;whiteSpace=wrap;html=1;" vertex="1" parent="IiL9sP4HAawI8thrEt5j-1">
          <mxGeometry y="26" width="230" height="24" as="geometry" />
        </mxCell>
        <mxCell id="IiL9sP4HAawI8thrEt5j-3" value="" style="line;strokeWidth=1;fillColor=none;align=left;verticalAlign=middle;spacingTop=-1;spacingLeft=3;spacingRight=3;rotatable=0;labelPosition=right;points=[];portConstraint=eastwest;strokeColor=inherit;" vertex="1" parent="IiL9sP4HAawI8thrEt5j-1">
          <mxGeometry y="50" width="230" height="8" as="geometry" />
        </mxCell>
        <mxCell id="IiL9sP4HAawI8thrEt5j-4" value="+ GestioneCombinazioni()&lt;br&gt;+ checkTipo(Combinazione c) : boolean&lt;br&gt;+ checkPush(Carta c) : Combinazione&lt;br&gt;+ serialize() : String&amp;nbsp;" style="text;strokeColor=none;fillColor=none;align=left;verticalAlign=top;spacingLeft=4;spacingRight=4;overflow=hidden;rotatable=0;points=[[0,0.5],[1,0.5]];portConstraint=eastwest;whiteSpace=wrap;html=1;" vertex="1" parent="IiL9sP4HAawI8thrEt5j-1">
          <mxGeometry y="58" width="230" height="72" as="geometry" />
        </mxCell>
        <mxCell id="IiL9sP4HAawI8thrEt5j-5" value="GestioneMazzo" style="swimlane;fontStyle=1;align=center;verticalAlign=top;childLayout=stackLayout;horizontal=1;startSize=26;horizontalStack=0;resizeParent=1;resizeParentMax=0;resizeLast=0;collapsible=1;marginBottom=0;whiteSpace=wrap;html=1;" vertex="1" parent="WIyWlLk6GJQsqaUBKTNV-1">
          <mxGeometry x="25" y="390" width="260" height="180" as="geometry" />
        </mxCell>
        <mxCell id="IiL9sP4HAawI8thrEt5j-6" value="+ List&amp;lt;Carta&amp;gt; mazzo&lt;br&gt;+ List&amp;lt;Carta&amp;gt; scarti" style="text;strokeColor=none;fillColor=none;align=left;verticalAlign=top;spacingLeft=4;spacingRight=4;overflow=hidden;rotatable=0;points=[[0,0.5],[1,0.5]];portConstraint=eastwest;whiteSpace=wrap;html=1;" vertex="1" parent="IiL9sP4HAawI8thrEt5j-5">
          <mxGeometry y="26" width="260" height="34" as="geometry" />
        </mxCell>
        <mxCell id="IiL9sP4HAawI8thrEt5j-7" value="" style="line;strokeWidth=1;fillColor=none;align=left;verticalAlign=middle;spacingTop=-1;spacingLeft=3;spacingRight=3;rotatable=0;labelPosition=right;points=[];portConstraint=eastwest;strokeColor=inherit;" vertex="1" parent="IiL9sP4HAawI8thrEt5j-5">
          <mxGeometry y="60" width="260" height="8" as="geometry" />
        </mxCell>
        <mxCell id="IiL9sP4HAawI8thrEt5j-8" value="+ GestioneMazzo()&lt;br&gt;+ loadFileCSV() : void&lt;br&gt;+ distribuisciCarte(Player p1, Player p2) : void&lt;br&gt;+ mischia() : void&lt;br&gt;+ popIndex(List&amp;lt;Carta&amp;gt; list) : Carta&lt;br&gt;+ mischiaScarti() : void&lt;br&gt;+ serialize() : String&amp;nbsp;" style="text;strokeColor=none;fillColor=none;align=left;verticalAlign=top;spacingLeft=4;spacingRight=4;overflow=hidden;rotatable=0;points=[[0,0.5],[1,0.5]];portConstraint=eastwest;whiteSpace=wrap;html=1;" vertex="1" parent="IiL9sP4HAawI8thrEt5j-5">
          <mxGeometry y="68" width="260" height="112" as="geometry" />
        </mxCell>
        <mxCell id="IiL9sP4HAawI8thrEt5j-9" value="" style="edgeStyle=orthogonalEdgeStyle;rounded=0;orthogonalLoop=1;jettySize=auto;html=1;exitX=-0.008;exitY=0.236;exitDx=0;exitDy=0;exitPerimeter=0;entryX=0.057;entryY=1.067;entryDx=0;entryDy=0;entryPerimeter=0;" edge="1" parent="WIyWlLk6GJQsqaUBKTNV-1" source="IiL9sP4HAawI8thrEt5j-8" target="06xm1KW4ta1WUU6lVawy-19">
          <mxGeometry relative="1" as="geometry">
            <Array as="points">
              <mxPoint x="10" y="484" />
              <mxPoint x="10" y="299" />
              <mxPoint x="24" y="299" />
            </Array>
          </mxGeometry>
        </mxCell>
        <mxCell id="IiL9sP4HAawI8thrEt5j-15" value="" style="edgeStyle=orthogonalEdgeStyle;rounded=0;orthogonalLoop=1;jettySize=auto;html=1;entryX=0.318;entryY=1.029;entryDx=0;entryDy=0;entryPerimeter=0;exitX=0.401;exitY=0.002;exitDx=0;exitDy=0;exitPerimeter=0;" edge="1" parent="WIyWlLk6GJQsqaUBKTNV-1" source="IiL9sP4HAawI8thrEt5j-11" target="IiL9sP4HAawI8thrEt5j-8">
          <mxGeometry relative="1" as="geometry">
            <Array as="points">
              <mxPoint x="108" y="600" />
            </Array>
          </mxGeometry>
        </mxCell>
        <mxCell id="IiL9sP4HAawI8thrEt5j-21" value="" style="edgeStyle=orthogonalEdgeStyle;rounded=0;orthogonalLoop=1;jettySize=auto;html=1;entryX=-0.004;entryY=0.268;entryDx=0;entryDy=0;entryPerimeter=0;" edge="1" parent="WIyWlLk6GJQsqaUBKTNV-1" source="IiL9sP4HAawI8thrEt5j-11" target="IiL9sP4HAawI8thrEt5j-19">
          <mxGeometry relative="1" as="geometry" />
        </mxCell>
        <mxCell id="IiL9sP4HAawI8thrEt5j-11" value="Carta" style="swimlane;fontStyle=1;align=center;verticalAlign=top;childLayout=stackLayout;horizontal=1;startSize=26;horizontalStack=0;resizeParent=1;resizeParentMax=0;resizeLast=0;collapsible=1;marginBottom=0;whiteSpace=wrap;html=1;" vertex="1" parent="WIyWlLk6GJQsqaUBKTNV-1">
          <mxGeometry x="9" y="600" width="240" height="180" as="geometry" />
        </mxCell>
        <mxCell id="IiL9sP4HAawI8thrEt5j-12" value="+ char cover&lt;br&gt;+ char rank&lt;br&gt;+ char type&lt;br&gt;+ int value" style="text;strokeColor=none;fillColor=none;align=left;verticalAlign=top;spacingLeft=4;spacingRight=4;overflow=hidden;rotatable=0;points=[[0,0.5],[1,0.5]];portConstraint=eastwest;whiteSpace=wrap;html=1;" vertex="1" parent="IiL9sP4HAawI8thrEt5j-11">
          <mxGeometry y="26" width="240" height="64" as="geometry" />
        </mxCell>
        <mxCell id="IiL9sP4HAawI8thrEt5j-13" value="" style="line;strokeWidth=1;fillColor=none;align=left;verticalAlign=middle;spacingTop=-1;spacingLeft=3;spacingRight=3;rotatable=0;labelPosition=right;points=[];portConstraint=eastwest;strokeColor=inherit;" vertex="1" parent="IiL9sP4HAawI8thrEt5j-11">
          <mxGeometry y="90" width="240" height="8" as="geometry" />
        </mxCell>
        <mxCell id="IiL9sP4HAawI8thrEt5j-14" value="+ isInt(Object o)&lt;br&gt;+ associaValore() : void&lt;br&gt;+ loadFileCSV(Buffered reader) :&amp;nbsp; boolean&lt;br&gt;+ getValue() : int&lt;br&gt;+ serialize() : String&amp;nbsp;" style="text;strokeColor=none;fillColor=none;align=left;verticalAlign=top;spacingLeft=4;spacingRight=4;overflow=hidden;rotatable=0;points=[[0,0.5],[1,0.5]];portConstraint=eastwest;whiteSpace=wrap;html=1;" vertex="1" parent="IiL9sP4HAawI8thrEt5j-11">
          <mxGeometry y="98" width="240" height="82" as="geometry" />
        </mxCell>
        <mxCell id="IiL9sP4HAawI8thrEt5j-22" value="" style="edgeStyle=orthogonalEdgeStyle;rounded=0;orthogonalLoop=1;jettySize=auto;html=1;entryX=1.043;entryY=0.306;entryDx=0;entryDy=0;entryPerimeter=0;" edge="1" parent="WIyWlLk6GJQsqaUBKTNV-1" source="IiL9sP4HAawI8thrEt5j-16" target="IiL9sP4HAawI8thrEt5j-4">
          <mxGeometry relative="1" as="geometry">
            <Array as="points">
              <mxPoint x="310" y="310" />
            </Array>
          </mxGeometry>
        </mxCell>
        <mxCell id="IiL9sP4HAawI8thrEt5j-16" value="Combinazione" style="swimlane;fontStyle=1;align=center;verticalAlign=top;childLayout=stackLayout;horizontal=1;startSize=26;horizontalStack=0;resizeParent=1;resizeParentMax=0;resizeLast=0;collapsible=1;marginBottom=0;whiteSpace=wrap;html=1;" vertex="1" parent="WIyWlLk6GJQsqaUBKTNV-1">
          <mxGeometry x="279" y="600" width="240" height="150" as="geometry" />
        </mxCell>
        <mxCell id="IiL9sP4HAawI8thrEt5j-17" value="+ List&amp;lt;Carta&amp;gt; combinazione&lt;br&gt;+ String tipo" style="text;strokeColor=none;fillColor=none;align=left;verticalAlign=top;spacingLeft=4;spacingRight=4;overflow=hidden;rotatable=0;points=[[0,0.5],[1,0.5]];portConstraint=eastwest;whiteSpace=wrap;html=1;" vertex="1" parent="IiL9sP4HAawI8thrEt5j-16">
          <mxGeometry y="26" width="240" height="34" as="geometry" />
        </mxCell>
        <mxCell id="IiL9sP4HAawI8thrEt5j-18" value="" style="line;strokeWidth=1;fillColor=none;align=left;verticalAlign=middle;spacingTop=-1;spacingLeft=3;spacingRight=3;rotatable=0;labelPosition=right;points=[];portConstraint=eastwest;strokeColor=inherit;" vertex="1" parent="IiL9sP4HAawI8thrEt5j-16">
          <mxGeometry y="60" width="240" height="8" as="geometry" />
        </mxCell>
        <mxCell id="IiL9sP4HAawI8thrEt5j-19" value="+ Combinazione()&lt;br&gt;+ setTipo(String s) : void&lt;br&gt;+ isSetTipo() :&amp;nbsp; boolean&lt;br&gt;+ ordinaScala() : boolean&lt;br&gt;+ serialize() : String&amp;nbsp;" style="text;strokeColor=none;fillColor=none;align=left;verticalAlign=top;spacingLeft=4;spacingRight=4;overflow=hidden;rotatable=0;points=[[0,0.5],[1,0.5]];portConstraint=eastwest;whiteSpace=wrap;html=1;" vertex="1" parent="IiL9sP4HAawI8thrEt5j-16">
          <mxGeometry y="68" width="240" height="82" as="geometry" />
        </mxCell>
      </root>
    </mxGraphModel>
  </diagram>
</mxfile>
